# xmcd
# 
# Track frame offsets:
#   150
#   17060
#   30710
#   44970
#   60705
#   76995
#   94035
#   115542
#   132265
#   144375
#   162655
#   179772
#   197690
#   222765
#   240217
#   252465
#   268260
#   285590
# 
# Disc length: 4003 seconds
# 
# Revision: 1
# Processed by: cddbd v1.5.1PL2 Copyright (c) Steve Scherf et al.
# Submitted via: Synapstar 1.0 
# 
DISCID=0a0fa112
DTITLE=Neil Diamond - AH8018
DYEAR=1900
DGENRE=Country
TTITLE0=Brother Love's Traveling Salvation Show
TTITLE1=Cherry, Cherry
TTITLE2=Craklin' Rosie
TTITLE3=Forever In Blue Jeans
TTITLE4=Girl, You'll Be A Woman Soon
TTITLE5=Hello Again
TTITLE6=Holly Holy
TTITLE7=I Am What I Said
TTITLE8=Kentucky Woman
TTITLE9=Longfellow Serenade
TTITLE10=Love On The Rocks
TTITLE11=Play Me
TTITLE12=Red, Red Wine (Extended Calypso Version)
TTITLE13=September Morn
TTITLE14=Solitary Man
TTITLE15=Song Sung Blue
TTITLE16=Sweet Caroline
TTITLE17=You Don't Bring Me Flowers
EXTD=MediaType: Karaoke CD+G Producer: All Hits
EXTT0=
EXTT1=
EXTT2=
EXTT3=
EXTT4=
EXTT5=
EXTT6=
EXTT7=
EXTT8=
EXTT9=
EXTT10=
EXTT11=
EXTT12=
EXTT13=
EXTT14=
EXTT15=
EXTT16=
EXTT17=
PLAYORDER=
